<?xml version="1.0" encoding="UTF-8"?>
<svg version="1.1" xmlns="http://www.w3.org/2000/svg" width="855" height="282">
<path d="M0 0 C0.93767212 -0.00315216 1.87534424 -0.00630432 2.84143066 -0.009552 C3.86119995 -0.00752777 4.88096924 -0.00550354 5.93164062 -0.00341797 C7.49078186 -0.00485306 7.49078186 -0.00485306 9.0814209 -0.00631714 C11.28393616 -0.0069991 13.48645342 -0.00514374 15.68896484 -0.00097656 C19.07328782 0.00437146 22.45747806 -0.00092105 25.84179688 -0.00732422 C27.97591175 -0.00666344 30.11002655 -0.00538228 32.24414062 -0.00341797 C33.26390991 -0.0054422 34.2836792 -0.00746643 35.33435059 -0.009552 C36.74085876 -0.00482376 36.74085876 -0.00482376 38.17578125 0 C39.42035095 0.00119339 39.42035095 0.00119339 40.69006348 0.00241089 C42.58789062 0.12939453 42.58789062 0.12939453 43.58789062 1.12939453 C43.70277843 2.92413384 43.74754986 4.7233994 43.76489258 6.52172852 C43.78414543 8.25766518 43.78414543 8.25766518 43.80378723 10.02867126 C43.81117416 11.29812088 43.8185611 12.5675705 43.82617188 13.87548828 C43.83424362 15.18856461 43.84231537 16.50164093 43.85063171 17.85450745 C43.86571205 20.65829337 43.87551144 23.46205368 43.88305664 26.26586914 C43.89176092 29.0886907 43.91223715 31.91099455 43.94458008 34.73364258 C44.15164536 53.2008414 43.09725142 70.93373255 39.58789062 89.12939453 C39.42449188 89.99330811 39.26109314 90.85722168 39.09274292 91.74731445 C38.30675503 95.88610373 37.48457607 100.01279319 36.58789062 104.12939453 C38.56789063 104.12939453 40.54789063 104.12939453 42.58789062 104.12939453 C42.92820312 102.27314453 42.92820312 102.27314453 43.27539062 100.37939453 C46.68706764 85.26376997 54.92978531 70.49255844 67.88085938 61.77001953 C81.29731028 53.63883716 96.19722348 52.77988927 111.27539062 55.95751953 C121.32957961 58.43450609 132.91949273 64.01325236 139.58789062 72.12939453 C139.58789062 72.78939453 139.58789062 73.44939453 139.58789062 74.12939453 C140.24789062 74.12939453 140.90789062 74.12939453 141.58789062 74.12939453 C143.12954451 76.20411537 144.52857687 78.25796704 145.90039062 80.44189453 C146.30410889 81.08199463 146.70782715 81.72209473 147.1237793 82.3815918 C162.82611557 107.71435752 165.19320097 139.46604888 158.58789062 168.12939453 C155.6967901 180.16226201 150.54811142 194.19691436 141.58789062 203.12939453 C140.92789063 203.12939453 140.26789063 203.12939453 139.58789062 203.12939453 C139.58789062 203.78939453 139.58789062 204.44939453 139.58789062 205.12939453 C138.92789063 205.12939453 138.26789063 205.12939453 137.58789062 205.12939453 C137.58789062 205.78939453 137.58789062 206.44939453 137.58789062 207.12939453 C123.13494145 219.15377437 107.11812696 222.92180595 88.58789062 222.12939453 C74.68843637 220.69963296 62.34030431 215.15057186 53.27539062 204.31689453 C46.37621023 195.07171517 40.58789062 182.92438157 40.58789062 171.12939453 C38.93789063 171.12939453 37.28789063 171.12939453 35.58789062 171.12939453 C35.59836426 172.44657471 35.60883789 173.76375488 35.61962891 175.12084961 C35.65579345 180.0016814 35.67877822 184.88250132 35.69775391 189.76342773 C35.70781957 191.87705476 35.72147319 193.99066783 35.73876953 196.10424805 C35.76299292 199.14000895 35.774368 202.17558596 35.78320312 205.21142578 C35.79868698 206.63186943 35.79868698 206.63186943 35.81448364 208.08100891 C35.81471024 209.40203865 35.81471024 209.40203865 35.81494141 210.74975586 C35.81938263 211.5247493 35.82382385 212.29974274 35.82839966 213.09822083 C35.58789062 215.12939453 35.58789062 215.12939453 33.58789062 218.12939453 C30.69124439 218.40848801 28.01125106 218.50124537 25.11523438 218.45751953 C24.27698624 218.45564636 23.4387381 218.45377319 22.5750885 218.45184326 C20.80221584 218.44511631 19.02935818 218.43118904 17.2565918 218.41064453 C14.5329012 218.37948047 11.80978871 218.36967437 9.0859375 218.36376953 C7.36652935 218.35460026 5.64712713 218.34422473 3.92773438 218.33251953 C3.10796616 218.32826965 2.28819794 218.32401978 1.44358826 218.31964111 C-4.29495896 218.24654495 -4.29495896 218.24654495 -5.41210938 217.12939453 C-5.51222191 214.35006663 -5.54650301 211.59551577 -5.53909302 208.81567383 C-5.54065301 207.93347766 -5.542213 207.05128149 -5.54382026 206.1423521 C-5.5478342 203.1627559 -5.5446391 200.18320994 -5.54150391 197.20361328 C-5.54285777 195.07703623 -5.54463762 192.95045942 -5.54681396 190.82388306 C-5.55139004 185.03066564 -5.54959803 179.23746594 -5.54643488 173.4442482 C-5.54391217 167.39618124 -5.54624856 161.34811585 -5.54782104 155.30004883 C-5.549643 145.14127326 -5.54723574 134.98250494 -5.54248047 124.82373047 C-5.5370378 113.06024055 -5.53880044 101.29676796 -5.54430687 89.53327847 C-5.54883726 79.45349446 -5.54948892 69.3737157 -5.54686821 59.29393101 C-5.54530502 53.26491067 -5.5451128 47.23589849 -5.54840469 41.20687866 C-5.55128233 35.54021769 -5.54930971 29.87357916 -5.54351044 24.20692062 C-5.54218226 22.12069104 -5.54257793 20.03445959 -5.5447731 17.94823074 C-5.54748235 15.11316627 -5.54410626 12.27817497 -5.53909302 9.44311523 C-5.54132374 8.60626536 -5.54355446 7.76941549 -5.54585278 6.90720654 C-5.52197545 0.0052949 -5.52197545 0.0052949 0 0 Z M52.83007812 106.27001953 C43.19120081 120.12287838 41.75245214 135.36230036 44.11914062 151.82470703 C46.59815129 162.36050237 51.39800699 172.46430069 60.77929688 178.55126953 C69.05687025 182.75865489 78.51597626 183.8619141 87.51757812 181.29345703 C96.75802338 177.00427839 102.5502821 170.36237909 106.58007812 161.13330078 C109.2047892 153.31003404 109.92768977 145.98781594 109.90039062 137.75439453 C109.91650391 136.79017578 109.93261719 135.82595703 109.94921875 134.83251953 C109.95730601 122.76632389 106.64903031 110.3764196 98.40039062 101.25439453 C91.77240583 95.21207219 84.28491649 93.45621061 75.47070312 93.81689453 C66.15814917 94.82638547 58.80366769 98.9955149 52.83007812 106.27001953 Z " fill="#FF8AA6" transform="translate(506.412109375,17.87060546875)"/>
<path d="M0 0 C0.95116196 -0.00315216 1.90232391 -0.00630432 2.88230896 -0.009552 C3.91251663 -0.00752777 4.9427243 -0.00550354 6.00415039 -0.00341797 C7.05961563 -0.00437469 8.11508087 -0.00533142 9.20252991 -0.00631714 C11.43775492 -0.00699854 13.6729819 -0.00514705 15.90820312 -0.00097656 C19.33411094 0.00436693 22.75988733 -0.0009202 26.18579102 -0.00732422 C28.3544111 -0.00666333 30.5230311 -0.00538193 32.69165039 -0.00341797 C33.71983383 -0.0054422 34.74801727 -0.00746643 35.80735779 -0.009552 C36.76167191 -0.00639984 37.71598602 -0.00324768 38.69921875 0 C39.53923935 0.00079559 40.37925995 0.00159119 41.24473572 0.00241089 C43.41430664 0.12939453 43.41430664 0.12939453 46.41430664 1.12939453 C47.51428948 3.8469992 48.40275262 6.45127138 49.22680664 9.25439453 C49.48469971 10.10042236 49.74259277 10.9464502 50.00830078 11.81811523 C52.23440367 19.24093541 54.1825815 26.73299617 56.09765625 34.2409668 C57.85568071 41.102641 59.77331221 47.90186216 61.78930664 54.69189453 C64.48920923 63.79834564 66.99373858 72.94485815 69.41430664 82.12939453 C72.04936245 92.12480389 74.81577635 102.06391788 77.75878906 111.97265625 C80.6121336 121.65006642 83.19244066 131.39800062 85.75024414 141.15673828 C86.06864258 142.36716797 86.38704102 143.57759766 86.71508789 144.82470703 C86.99521729 145.89736816 87.27534668 146.9700293 87.56396484 148.07519531 C88.41514976 151.13242278 89.38487385 154.12798356 90.41430664 157.12939453 C91.40430664 157.12939453 92.39430664 157.12939453 93.41430664 157.12939453 C98.99134885 137.36241539 104.51941396 117.58266895 109.98800659 97.78540039 C115.78410479 76.80474015 121.59340528 55.8276347 127.44888306 34.86346436 C128.0445449 32.72993719 128.63943088 30.59619323 129.23348999 28.46221924 C130.05063872 25.52773048 130.8707171 22.59407645 131.69165039 19.66064453 C131.92523254 18.81984344 132.1588147 17.97904236 132.3994751 17.11276245 C133.5289955 13.08965703 134.70529686 9.08230185 135.95947266 5.09619141 C136.19013931 4.35848511 136.42080597 3.62077881 136.65846252 2.86071777 C137.41430664 1.12939453 137.41430664 1.12939453 139.41430664 0.12939453 C140.94582977 0.03449538 142.48140936 0.00144947 144.01586914 0 C144.97025879 -0.00315216 145.92464844 -0.00630432 146.90795898 -0.009552 C147.94130371 -0.00752777 148.97464844 -0.00550354 150.03930664 -0.00341797 C151.09714355 -0.00437469 152.15498047 -0.00533142 153.24487305 -0.00631714 C155.48429422 -0.00699848 157.72371737 -0.0051474 159.96313477 -0.00097656 C163.40002865 0.00437231 166.83679184 -0.00092313 170.27368164 -0.00732422 C172.44555693 -0.00666343 174.61743214 -0.00538225 176.78930664 -0.00341797 C177.82265137 -0.0054422 178.85599609 -0.00746643 179.9206543 -0.009552 C180.87504395 -0.00639984 181.82943359 -0.00324768 182.81274414 0 C183.65498535 0.00079559 184.49722656 0.00159119 185.36499023 0.00241089 C187.41430664 0.12939453 187.41430664 0.12939453 189.41430664 1.12939453 C188.83848299 5.87871891 187.89668125 10.19704104 186.40258789 14.73876953 C186.19848801 15.36487122 185.99438812 15.9909729 185.78410339 16.63604736 C185.10371904 18.71896855 184.41521474 20.79911278 183.72680664 22.87939453 C183.2314395 24.3909248 182.73666399 25.90264908 182.24243164 27.41455078 C181.18345057 30.65177349 180.12143735 33.88797986 179.05737305 37.12353516 C177.44050756 42.04394074 175.83765222 46.96882447 174.23852539 51.89501953 C169.11334029 67.67783482 163.96791116 83.45386201 158.78930664 99.21923828 C157.16400728 104.16835879 155.53898005 109.1175685 153.91430664 114.06689453 C153.30968094 115.90879364 153.30968094 115.90879364 152.69284058 117.78790283 C146.34589045 137.13340044 140.10638088 156.51063811 133.97335815 175.92497253 C133.00671626 178.98093547 132.0352259 182.03533838 131.06207275 185.0892334 C130.44349901 187.03745219 129.8327596 188.98815325 129.22241211 190.93896484 C128.87194824 192.03563477 128.52148438 193.13230469 128.16040039 194.26220703 C127.72038696 195.65656982 127.72038696 195.65656982 127.27148438 197.07910156 C126.41430664 199.12939453 126.41430664 199.12939453 124.41430664 200.12939453 C122.3372749 200.24665898 120.25648082 200.2991832 118.17626953 200.32226562 C116.86473404 200.33832855 115.55319855 200.35439148 114.20191956 200.37094116 C112.76360723 200.38242556 111.32528769 200.39303462 109.88696289 200.40283203 C109.16439238 200.40815571 108.44182186 200.41347939 107.69735527 200.41896439 C103.87490779 200.44568383 100.05249288 200.46506499 96.22998047 200.47949219 C92.27729573 200.49616375 88.32544099 200.54096419 84.37307072 200.59186363 C81.33706168 200.62547095 78.30125159 200.63706212 75.26507378 200.64271927 C73.80775016 200.64944688 72.35044032 200.6647083 70.8932972 200.68861008 C68.85633857 200.7201239 66.81893588 200.71730695 64.78173828 200.71289062 C63.62194962 200.72097748 62.46216095 200.72906433 61.26722717 200.73739624 C58.41430664 200.12939453 58.41430664 200.12939453 56.56765747 197.72323608 C55.55817363 195.45294584 54.66196106 193.26836141 53.93383789 190.89501953 C53.66555176 190.03739014 53.39726563 189.17976074 53.12084961 188.29614258 C52.82581543 187.33361572 52.53078125 186.37108887 52.22680664 185.37939453 C51.51908521 183.11967961 50.80925052 180.86062602 50.09790039 178.60205078 C49.89791443 177.96576248 49.69792847 177.32947418 49.49188232 176.67390442 C46.67825105 167.75010472 43.74069446 158.86635987 40.82492065 149.97555542 C35.18775087 132.78197994 29.62301989 115.56794598 24.16430664 98.31689453 C19.97288513 85.0739425 15.7056483 71.86161454 11.28930664 58.69189453 C7.31292685 46.83007234 3.360133 34.96133861 -0.51922607 23.06735229 C-1.05948462 21.41279282 -1.60133091 19.75875085 -2.14483643 18.10525513 C-2.89506142 15.82171442 -3.63959441 13.53639678 -4.38256836 11.25048828 C-4.60691559 10.57106171 -4.83126282 9.89163513 -5.06240845 9.19161987 C-5.97265488 6.37166655 -6.58569336 4.11533514 -6.58569336 1.12939453 C-4.18290669 -0.07199881 -2.68262599 0.00254315 0 0 Z " fill="#FF8AA7" transform="translate(11.585693359375,35.87060546875)"/>
<path d="M0 0 C0.90234375 0.43183594 1.8046875 0.86367187 2.734375 1.30859375 C17.37534089 8.770633 28.12299951 21.57991664 33.75024414 37.06445312 C34.42748042 39.19853198 35.04161867 41.3384086 35.625 43.5 C35.83664795 44.27827148 36.0482959 45.05654297 36.26635742 45.85839844 C39.37686635 57.77818782 44.03847436 75.82852261 38 87 C1.99510042 87.85079451 -33.98551762 88.13645131 -70 88 C-69.52597406 90.07840694 -69.0504184 92.15646502 -68.57421875 94.234375 C-68.30955811 95.39163086 -68.04489746 96.54888672 -67.7722168 97.74121094 C-65.49150358 107.36592166 -61.65717212 114.08664505 -53.30078125 119.8671875 C-43.43051519 125.37556028 -32.52285836 126.30344178 -21.53515625 123.84375 C-15.09242838 121.6994831 -10.490062 118.43893382 -7.125 112.5 C-6.39613204 111.00986994 -5.68908277 109.50894037 -5 108 C-4.00381497 105.99809706 -3.00458977 103.99769852 -2 102 C-0.35286458 102.32942708 1.29427083 102.65885417 2.94140625 102.98828125 C3.99384521 103.1987207 5.04628418 103.40916016 6.13061523 103.62597656 C8.42317083 104.08458554 10.71565106 104.54357144 13.00805664 105.00292969 C17.98027853 105.99885736 22.95248599 106.99406811 27.9296875 107.96484375 C28.9669397 108.16823364 28.9669397 108.16823364 30.02514648 108.37573242 C31.81715518 108.72644726 33.60973008 109.07426558 35.40234375 109.421875 C38 110 38 110 40 111 C39.11939267 123.91557422 31.67493266 136.22858125 22.4453125 145.01953125 C3.08956228 160.69583375 -23.19039381 162.87265471 -47.171875 160.48486328 C-64.05567349 158.51754083 -83.73531803 152.60536759 -96 140 C-96 139.34 -96 138.68 -96 138 C-96.66 138 -97.32 138 -98 138 C-116.16513005 117.21647282 -118.0443466 92.35621394 -117 66 C-115.44534992 45.81959047 -105.66398615 25.85722963 -91 12 C-66.59144193 -8.32853517 -28.98819161 -14.15813994 0 0 Z M-60 41 C-64.68679252 47.07245292 -67.20420994 53.59630416 -69 61 C-67.23537317 62.76462683 -64.71146939 62.14593994 -62.31860352 62.16113281 C-61.10386856 62.17074036 -59.88913361 62.1803479 -58.6375885 62.19024658 C-57.30136298 62.19509369 -55.96513529 62.19937274 -54.62890625 62.203125 C-53.26749162 62.20887379 -51.90607703 62.21463155 -50.54466248 62.22039795 C-47.68724183 62.23091577 -44.8298494 62.23675341 -41.97241211 62.24023438 C-38.30567499 62.2457232 -34.63930848 62.26975566 -30.97268772 62.29820633 C-28.15975342 62.31680232 -25.34690897 62.32203665 -22.53391838 62.32357025 C-21.18187367 62.32660384 -19.8298308 62.3346561 -18.47784615 62.34775543 C-16.58890201 62.36475184 -14.69980588 62.36110019 -12.81079102 62.35644531 C-11.73459 62.36009094 -10.65838898 62.36373657 -9.54957581 62.36749268 C-8.28753578 62.1855838 -8.28753578 62.1855838 -7 62 C-4.78588877 59.3251341 -4.78588877 59.3251341 -5.1015625 57.01953125 C-7.23460841 48.02571828 -10.48263777 40.7323515 -18 35 C-31.93076148 26.4135852 -48.8448415 30.01010311 -60 41 Z " fill="#FFCF7A" transform="translate(792,79)"/>
<path d="M0 0 C0.93767212 -0.00315216 1.87534424 -0.00630432 2.84143066 -0.009552 C3.86119995 -0.00752777 4.88096924 -0.00550354 5.93164062 -0.00341797 C7.49078186 -0.00485306 7.49078186 -0.00485306 9.0814209 -0.00631714 C11.28393616 -0.0069991 13.48645342 -0.00514374 15.68896484 -0.00097656 C19.07328782 0.00437146 22.45747806 -0.00092105 25.84179688 -0.00732422 C27.97591175 -0.00666344 30.11002655 -0.00538228 32.24414062 -0.00341797 C33.26390991 -0.0054422 34.2836792 -0.00746643 35.33435059 -0.009552 C36.74085876 -0.00482376 36.74085876 -0.00482376 38.17578125 0 C39.42035095 0.00119339 39.42035095 0.00119339 40.69006348 0.00241089 C42.58789062 0.12939453 42.58789062 0.12939453 43.58789062 1.12939453 C43.69718298 3.88544419 43.74212368 6.61734817 43.74560547 9.37426758 C43.75068619 10.23950043 43.75576691 11.10473328 43.76100159 11.9961853 C43.77173487 13.8841264 43.78034334 15.77208046 43.78712082 17.6600399 C43.79889866 20.65907297 43.81835518 23.65796129 43.84024048 26.65693665 C43.90184739 35.18750084 43.95564544 43.71805545 43.98925781 52.2487793 C44.01035765 57.46315001 44.04579708 62.67726544 44.09001541 67.89148903 C44.1040725 69.86993182 44.11287429 71.84841987 44.11606979 73.82691002 C43.90913126 97.94253477 43.90913126 97.94253477 54.96289062 118.56689453 C62.59021423 123.10696811 69.17938631 124.67734243 78.01367188 122.54345703 C85.4955602 119.72644208 90.49958493 114.16289868 94.12695312 107.15673828 C98.98011075 95.93203746 100.70614902 84.93018168 100.77734375 72.77978516 C100.78563705 71.99979156 100.79393036 71.21979797 100.80247498 70.41616821 C100.81972464 68.74170329 100.83493082 67.06721625 100.84825134 65.39271545 C100.86946413 62.74527025 100.89646228 60.0979381 100.92492676 57.45056152 C100.99437211 50.8865736 101.05436541 44.32250655 101.11395264 37.75842285 C101.16480079 32.18835718 101.21954213 26.61835804 101.2797699 21.04838562 C101.30638933 18.4353124 101.32716289 15.82223294 101.34777832 13.20910645 C101.36436881 11.62068373 101.38123952 10.03226391 101.3984375 8.44384766 C101.40262192 7.71352325 101.40680634 6.98319885 101.41111755 6.23074341 C101.47402584 1.24325932 101.47402584 1.24325932 102.58789062 0.12939453 C104.05594355 0.03116709 105.52866523 0.00141083 107 0 C107.93767212 -0.00315216 108.87534424 -0.00630432 109.84143066 -0.009552 C110.86119995 -0.00752777 111.88096924 -0.00550354 112.93164062 -0.00341797 C114.49078186 -0.00485306 114.49078186 -0.00485306 116.0814209 -0.00631714 C118.28393616 -0.0069991 120.48645342 -0.00514374 122.68896484 -0.00097656 C126.07328782 0.00437146 129.45747806 -0.00092105 132.84179688 -0.00732422 C134.97591175 -0.00666344 137.11002655 -0.00538228 139.24414062 -0.00341797 C140.26390991 -0.0054422 141.2836792 -0.00746643 142.33435059 -0.009552 C143.74085876 -0.00482376 143.74085876 -0.00482376 145.17578125 0 C146.42035095 0.00119339 146.42035095 0.00119339 147.69006348 0.00241089 C149.58789062 0.12939453 149.58789062 0.12939453 150.58789062 1.12939453 C150.68686482 3.16470127 150.71421363 5.20349924 150.71487427 7.24121094 C150.71643426 7.88656107 150.71799425 8.5319112 150.71960151 9.1968174 C150.72361312 11.37488668 150.72042127 13.55288714 150.71728516 15.73095703 C150.71863913 17.28611289 150.72041903 18.84126842 150.72259521 20.39642334 C150.72717006 24.63184133 150.72537978 28.86723507 150.72221613 33.1026535 C150.71969279 37.52514209 150.72202999 41.94762853 150.72360229 46.37011719 C150.72542407 53.79834365 150.72301748 61.22656019 150.71826172 68.65478516 C150.71281908 77.25544594 150.71458173 85.85608303 150.72008812 94.45674324 C150.72461904 101.82742072 150.72526991 109.19809104 150.72264946 116.56876945 C150.72108656 120.97694157 150.72089325 125.38510252 150.72418594 129.79327393 C150.72706434 133.93657802 150.72508955 138.0798514 150.71929169 142.22315216 C150.71796392 143.74821166 150.71835849 145.27327372 150.72055435 146.79833221 C150.72326522 148.87144965 150.71988555 150.94446715 150.71487427 153.01757812 C150.71430873 154.76196671 150.71430873 154.76196671 150.71373177 156.54159546 C150.58789062 159.12939453 150.58789062 159.12939453 149.58789062 160.12939453 C146.86064784 160.23038941 144.15926539 160.26909982 141.43164062 160.26220703 C140.20544006 160.26364212 140.20544006 160.26364212 138.95446777 160.2651062 C137.22273685 160.26578799 135.49100339 160.26393382 133.75927734 160.25976562 C131.0992258 160.25441732 128.43934312 160.25971065 125.77929688 160.26611328 C124.10091108 160.2654525 122.4225254 160.26417134 120.74414062 160.26220703 C119.94310913 160.26423126 119.14207764 160.26625549 118.31677246 160.26834106 C112.70284141 160.24434532 112.70284141 160.24434532 111.58789062 159.12939453 C111.42839497 157.12384568 111.33631329 155.11288699 111.27148438 153.10205078 C111.20852173 151.21220459 111.20852173 151.21220459 111.14428711 149.28417969 C111.10435292 147.92009344 111.0647262 146.55599817 111.02539062 145.19189453 C110.98258586 143.8199844 110.93969841 142.44807684 110.89672852 141.07617188 C110.59523826 131.09255645 110.46608937 121.11709725 110.58789062 111.12939453 C108.60789062 111.12939453 106.62789063 111.12939453 104.58789062 111.12939453 C104.40613281 112.64146484 104.40613281 112.64146484 104.22070312 114.18408203 C101.88137935 128.76875493 95.21023831 145.95391529 83.08398438 154.99658203 C68.90203494 164.50381378 53.2276032 166.00936984 36.59960938 162.87939453 C23.21607139 159.54652904 13.15521434 152.64158876 5.58789062 141.12939453 C-5.56501663 122.52050472 -5.71428295 102.1171956 -5.64257812 81.14501953 C-5.64138428 78.83428981 -5.64093359 76.5235596 -5.64118958 74.21282959 C-5.63963379 69.39852816 -5.63140773 64.58430204 -5.61791992 59.77001953 C-5.60081634 53.58589819 -5.59710932 47.40185846 -5.5978651 41.21771622 C-5.59759409 36.46013606 -5.59212593 31.70257389 -5.58486366 26.94499969 C-5.58167476 24.66271857 -5.57970907 22.3804354 -5.57896996 20.09815216 C-5.57681523 16.92656418 -5.56809335 13.75506513 -5.55737305 10.58349609 C-5.55782623 9.63503815 -5.55827942 8.6865802 -5.55874634 7.7093811 C-5.52043532 0.00529342 -5.52043532 0.00529342 0 0 Z " fill="#90ABE9" transform="translate(325.412109375,75.87060546875)"/>
<path d="M0 0 C1.07241943 0.00410889 2.14483887 0.00821777 3.24975586 0.01245117 C4.4118457 0.01438477 5.57393555 0.01631836 6.77124023 0.01831055 C7.99004883 0.03055664 9.20885742 0.04280273 10.46459961 0.05541992 C12.29861328 0.05638672 12.29861328 0.05638672 14.16967773 0.05737305 C23.26198905 0.10280936 23.26198905 0.10280936 24.40209961 1.24291992 C24.49057704 3.76386069 24.51737262 6.25722885 24.49975586 8.77807617 C24.49834091 9.53132675 24.49692596 10.28457733 24.49546814 11.06065369 C24.48985337 13.47561552 24.47729844 15.89048593 24.46459961 18.30541992 C24.45958651 19.93888213 24.45502327 21.57234578 24.45092773 23.20581055 C24.43987915 27.21821577 24.42260467 31.23055233 24.40209961 35.24291992 C25.48217285 35.23768311 26.56224609 35.23244629 27.67504883 35.22705078 C31.67438939 35.20897884 35.67372633 35.19747985 39.6730957 35.18798828 C41.40552375 35.1829531 43.13794753 35.1761246 44.87036133 35.16748047 C47.35751394 35.15537927 49.84461047 35.14968354 52.33178711 35.14526367 C53.10892059 35.14010239 53.88605408 35.1349411 54.68673706 35.12962341 C60.1743562 35.12904822 60.1743562 35.12904822 62.40209961 36.24291992 C62.40209961 49.11291992 62.40209961 61.98291992 62.40209961 75.24291992 C58.70669559 76.47472126 55.29906583 76.36704104 51.45288086 76.34057617 C50.68026413 76.33916122 49.9076474 76.33774628 49.11161804 76.33628845 C46.64590571 76.33069458 44.18028446 76.31814325 41.71459961 76.30541992 C40.04207488 76.30040413 38.36954873 76.29584136 36.69702148 76.29174805 C32.59867915 76.28072716 28.50040481 76.26346677 24.40209961 76.24291992 C24.4634583 84.4668272 24.54066951 92.69037122 24.63781452 100.91392612 C24.68243724 104.7329603 24.72171073 108.5518898 24.74853516 112.37109375 C24.77464962 116.06065815 24.81510832 119.74981796 24.86528587 123.43913078 C24.88189985 124.8427926 24.89344808 126.24652431 24.89971352 127.65027046 C24.81907416 137.88769415 24.81907416 137.88769415 28.40209961 147.24291992 C33.55053867 152.25934772 37.70833856 152.39521258 44.71459961 152.43041992 C45.98948242 152.44459961 47.26436523 152.4587793 48.57788086 152.47338867 C52.46879919 152.23890023 55.68503071 151.36647838 59.40209961 150.24291992 C60.72209961 150.24291992 62.04209961 150.24291992 63.40209961 150.24291992 C63.40209961 164.76291992 63.40209961 179.28291992 63.40209961 194.24291992 C53.5280575 197.20513255 45.56482282 198.48026411 35.49438477 198.53808594 C34.11374598 198.54952414 32.7331485 198.56984453 31.3527832 198.59960938 C15.96588485 198.93041106 2.32640872 195.59421041 -9.34790039 185.11791992 C-27.64416113 165.52711243 -23.89095136 132.40185103 -23.73522949 107.66522217 C-23.71441093 103.99713505 -23.70556051 100.3290184 -23.69555664 96.66088867 C-23.67439536 89.52149615 -23.64046862 82.38221971 -23.59790039 75.24291992 C-24.54427368 75.20533569 -24.54427368 75.20533569 -25.50976562 75.16699219 C-28.35186864 75.05137855 -31.19361122 74.92849676 -34.03540039 74.80541992 C-35.02862305 74.76610352 -36.0218457 74.72678711 -37.04516602 74.6862793 C-37.9894043 74.64438477 -38.93364258 74.60249023 -39.90649414 74.55932617 C-40.78104248 74.52266846 -41.65559082 74.48601074 -42.55664062 74.44824219 C-44.59790039 74.24291992 -44.59790039 74.24291992 -45.59790039 73.24291992 C-45.69817914 71.10679325 -45.72871458 68.96733562 -45.73071289 66.82885742 C-45.73200195 65.51014648 -45.73329102 64.19143555 -45.73461914 62.83276367 C-45.73147705 61.79418213 -45.73147705 61.79418213 -45.72827148 60.73461914 C-45.72297536 58.64746647 -45.72818802 56.56053414 -45.73461914 54.47338867 C-45.73395735 53.13354445 -45.73267411 51.79370037 -45.73071289 50.45385742 C-45.72958496 49.24004395 -45.72845703 48.02623047 -45.72729492 46.77563477 C-45.59560908 43.1803628 -45.29753443 39.77321901 -44.59790039 36.24291992 C-42.06843954 34.9781895 -40.22797028 35.08426562 -37.39868164 35.03198242 C-36.35389648 35.00362305 -35.30911133 34.97526367 -34.23266602 34.94604492 C-32.03751403 34.89442465 -29.84217916 34.85002034 -27.64672852 34.81323242 C-21.63571154 34.63632941 -16.75830373 34.48976004 -11.59790039 31.24291992 C-7.8339689 26.13763055 -7.46047664 19.62202593 -6.53540039 13.49291992 C-6.2185485 11.41365895 -5.894676 9.33545189 -5.56274414 7.25854492 C-5.42473389 6.34363281 -5.28672363 5.4287207 -5.14453125 4.48608398 C-4.3367366 1.17120356 -3.39842589 0.31777406 0 0 Z " fill="#FFD07B" transform="translate(242.597900390625,40.757080078125)"/>
</svg>
